<?xml version="1.0" standalone="no"?>
<!DOCTYPE svg PUBLIC "-//W3C//DTD SVG 20010904//EN"
 "http://www.w3.org/TR/2001/REC-SVG-20010904/DTD/svg10.dtd">
<svg version="1.0" xmlns="http://www.w3.org/2000/svg"
 width="428.000000pt" height="428.000000pt" viewBox="0 0 428.000000 428.000000"
 preserveAspectRatio="xMidYMid meet">
<metadata>
Created by potrace 1.11, written by Peter Selinger 2001-2013
</metadata>
<g transform="translate(0.000000,428.000000) scale(0.100000,-0.100000)"
fill="#000000" stroke="none">
<path d="M1910 4016 c-41 -6 -80 -14 -86 -18 -6 -4 31 -49 88 -108 54 -55 98
-106 98 -114 0 -7 6 -19 14 -25 8 -7 26 -44 41 -84 30 -85 38 -187 20 -257
-13 -48 -79 -160 -95 -160 -5 0 -21 -11 -35 -24 -88 -81 -254 -105 -368 -53
-58 27 -231 192 -223 213 3 7 0 15 -7 17 -7 2 19 34 57 71 l68 67 79 -78 c124
-124 111 -118 228 -102 7 1 33 22 57 45 42 42 43 44 40 102 -4 95 -41 156
-170 286 -130 131 -172 155 -224 126 -9 -5 -46 -21 -82 -35 -92 -37 -249 -117
-280 -143 -111 -94 -152 -162 -156 -261 -3 -91 19 -142 102 -229 29 -31 71
-76 93 -99 22 -24 45 -43 51 -43 6 0 16 -11 22 -25 6 -14 15 -25 19 -25 7 0
67 -61 127 -127 16 -18 32 -33 36 -33 4 0 22 -16 39 -35 17 -19 35 -35 41 -35
9 0 67 41 114 80 7 6 26 16 42 22 17 5 30 14 30 19 0 5 6 9 14 9 8 0 27 7 43
15 33 18 84 39 98 40 6 0 15 3 20 6 19 11 83 25 164 35 154 20 310 2 456 -53
98 -36 158 -71 291 -168 21 -15 484 451 519 523 34 69 33 161 -2 232 -20 41
-133 172 -133 155 0 -4 -11 2 -23 12 -32 25 -193 103 -293 144 -115 45 -118
44 -282 -121 -83 -84 -139 -163 -149 -210 -5 -23 -5 -93 -1 -110 20 -78 137
-132 206 -96 17 9 67 52 112 97 l83 81 68 -68 c38 -38 69 -73 69 -79 0 -16
-197 -203 -232 -218 -103 -47 -201 -44 -313 8 -60 29 -145 100 -145 121 0 8
-4 14 -10 14 -22 0 -43 77 -46 167 -3 76 1 103 20 161 35 103 69 153 168 254
49 50 86 94 81 98 -24 23 -435 35 -563 16z"/>
<path d="M740 3435 c0 -6 -20 -31 -45 -57 -25 -27 -45 -51 -45 -56 0 -4 -12
-22 -27 -39 -16 -17 -46 -57 -68 -89 -22 -31 -46 -63 -53 -70 -18 -19 -7 -49
19 -51 29 -3 70 -31 76 -54 3 -10 14 -19 24 -19 21 0 159 -136 159 -157 0 -7
-4 -13 -8 -13 -5 0 -15 -11 -22 -25 -7 -14 -17 -25 -22 -25 -5 0 -22 -16 -39
-35 -17 -19 -36 -35 -41 -35 -11 0 -53 38 -143 128 -46 46 -57 52 -94 52 -22
0 -41 -3 -42 -7 -2 -18 -9 -41 -28 -89 -11 -29 -18 -54 -15 -56 2 -3 -2 -11
-10 -18 -31 -25 23 -109 141 -222 132 -127 233 -231 233 -240 0 -5 4 -7 9 -4
5 4 11 1 13 -5 2 -6 35 21 73 60 39 40 159 160 268 269 108 108 197 202 197
209 0 8 -11 18 -25 23 -14 5 -25 17 -25 25 0 9 -5 13 -10 10 -5 -3 -10 -2 -10
3 0 9 -34 44 -102 106 -16 14 -28 27 -28 30 0 8 -61 66 -71 66 -5 0 -9 3 -9 8
0 4 -25 32 -54 63 -30 31 -66 74 -79 95 -24 37 -63 140 -70 184 -3 21 -27 51
-27 35z"/>
<path d="M3529 3438 c0 -2 -2 -19 -5 -40 -4 -45 -34 -124 -67 -181 -14 -23
-113 -131 -222 -240 l-196 -199 98 -98 c54 -55 103 -104 108 -110 6 -6 83 -82
172 -169 l161 -159 146 144 c80 79 150 144 156 144 5 0 10 6 10 13 1 15 35 57
47 57 12 0 46 81 44 105 -1 18 -12 45 -57 153 -10 24 -20 32 -39 32 -39 0 -55
-12 -149 -106 l-86 -86 -70 70 c-39 38 -70 73 -70 78 0 19 191 194 238 218 56
28 60 36 37 60 -8 8 -15 19 -15 23 0 5 -8 18 -17 29 -10 11 -33 42 -52 69 -19
28 -47 63 -63 79 -15 17 -38 44 -50 62 -18 27 -56 60 -59 52z"/>
<path d="M2009 2856 c-2 -3 -16 -7 -29 -10 -14 -3 -34 -7 -46 -10 -25 -5 -145
-55 -159 -66 -5 -4 -20 -11 -33 -15 -13 -3 -36 -19 -51 -33 -16 -15 -54 -51
-85 -79 -31 -29 -56 -58 -55 -65 0 -7 26 -25 58 -40 60 -29 161 -112 149 -123
-4 -4 -29 0 -55 7 -91 27 -251 6 -271 -35 -30 -65 -38 -94 -54 -217 -9 -65 -8
-105 1 -170 13 -92 30 -159 42 -174 7 -8 74 18 89 35 8 8 101 46 133 53 31 7
37 -8 8 -23 -10 -6 -33 -32 -50 -58 -17 -27 -34 -52 -39 -58 -9 -12 -42 -112
-42 -129 0 -6 16 -29 36 -51 20 -22 42 -49 50 -61 8 -11 26 -27 41 -35 15 -8
38 -25 52 -38 30 -27 133 -81 156 -81 8 0 15 -4 15 -8 0 -14 149 -49 151 -35
0 4 2 50 4 101 3 51 8 98 12 105 8 12 9 18 12 38 2 21 25 2 28 -25 5 -38 53
-136 80 -166 68 -73 63 -72 148 -55 126 25 266 98 362 189 40 38 73 74 73 80
0 7 -15 17 -32 24 -38 14 -128 78 -128 91 0 12 69 29 130 30 30 1 64 3 75 6
11 2 25 4 32 4 22 2 72 59 69 78 -2 10 4 51 15 90 28 112 27 231 -3 348 -5 22
-12 49 -14 59 -7 35 -19 36 -74 3 -78 -45 -176 -82 -184 -68 -3 4 14 28 38 53
42 45 106 174 106 215 0 23 -99 128 -170 180 -102 75 -262 141 -326 134 -7 -1
-10 -26 -9 -68 4 -120 -40 -247 -50 -149 -4 37 -60 136 -105 184 -29 30 -47
42 -68 42 -16 0 -31 -2 -33 -4z"/>
<path d="M1217 2453 c-113 -116 -222 -223 -228 -223 -4 0 -10 6 -13 13 -3 6
-4 3 -1 -9 4 -15 -9 -35 -50 -76 -30 -30 -55 -60 -55 -65 0 -7 326 -339 375
-382 7 -6 -2 31 -25 94 -47 134 -58 332 -26 490 2 11 15 55 29 98 25 78 24 91
-6 60z"/>
<path d="M3050 2460 c0 -5 11 -44 25 -85 14 -42 29 -99 32 -128 9 -68 9 -250
0 -307 -11 -70 -14 -81 -37 -148 -12 -34 -20 -66 -18 -70 2 -4 88 77 191 181
l189 189 -179 179 c-98 99 -179 184 -181 189 -5 13 -22 13 -22 0z"/>
<path d="M235 2398 c-12 -32 -16 -96 -19 -278 -3 -167 3 -260 23 -350 1 -7
321 313 321 322 0 9 -305 318 -314 318 -4 0 -9 -6 -11 -12z"/>
<path d="M3890 2259 c-80 -82 -149 -153 -153 -158 -9 -9 10 -37 53 -79 132
-128 210 -207 210 -212 0 -3 14 -14 30 -23 29 -17 30 -17 31 0 0 10 2 25 3 33
31 156 18 592 -18 589 -6 -1 -76 -68 -156 -150z"/>
<path d="M635 1865 c-41 -41 -80 -75 -85 -75 -6 0 -10 -4 -10 -8 0 -4 -37 -46
-82 -93 -151 -157 -168 -189 -133 -255 8 -16 18 -46 21 -66 4 -21 10 -38 15
-38 4 0 10 -8 13 -18 4 -12 15 -17 33 -16 16 1 29 3 31 4 1 2 6 3 11 4 6 0 51
41 100 89 81 78 93 86 112 77 11 -6 25 -22 31 -36 6 -13 15 -24 20 -24 4 0 24
-16 45 -35 l36 -34 -103 -102 c-90 -89 -158 -137 -183 -131 -22 6 -14 -31 15
-74 18 -27 35 -51 38 -54 3 -3 17 -21 30 -40 13 -19 32 -42 42 -51 10 -9 18
-20 18 -25 0 -11 98 -114 108 -114 4 0 13 29 20 64 12 63 57 166 73 166 5 0 9
7 9 15 0 8 80 95 178 193 97 98 185 188 195 199 18 21 16 23 -248 287 -146
146 -268 266 -270 266 -3 0 -39 -34 -80 -75z"/>
<path d="M3473 1843 c-51 -52 -93 -98 -93 -104 0 -5 -4 -9 -9 -9 -10 0 -271
-259 -271 -269 0 -3 -13 -15 -29 -25 -16 -11 -27 -25 -25 -31 3 -6 93 -101
202 -210 157 -159 203 -212 226 -260 30 -61 58 -163 50 -177 -3 -5 1 -8 8 -8
16 0 114 109 166 185 15 22 29 42 32 45 13 11 70 102 70 110 0 5 -24 19 -52
33 -36 16 -84 54 -145 116 -51 51 -93 97 -93 102 0 11 129 134 141 134 5 0 47
-38 94 -83 59 -59 94 -86 118 -92 19 -4 39 -5 44 -1 17 11 76 165 75 195 0 16
-7 33 -14 37 -7 5 -9 9 -5 9 13 0 -8 22 -199 216 -99 101 -184 183 -190 183
-5 -1 -51 -44 -101 -96z"/>
<path d="M1264 1121 c-272 -271 -296 -305 -290 -416 7 -140 97 -241 305 -345
42 -21 79 -37 82 -37 3 1 12 -3 20 -9 8 -6 28 -15 44 -19 40 -11 44 -12 53
-15 4 -1 10 -2 15 -1 4 0 7 -3 7 -7 0 -12 58 -14 65 -2 4 6 11 8 16 5 5 -4 9
-1 9 4 0 6 6 11 13 11 23 0 223 212 249 265 29 57 41 119 32 164 -13 63 -105
121 -181 113 -24 -2 -53 -24 -123 -93 -51 -49 -95 -89 -99 -89 -9 0 -141 131
-141 140 0 16 213 212 246 226 98 41 205 35 309 -17 91 -46 156 -117 186 -204
18 -53 19 -170 3 -217 -7 -21 -11 -38 -8 -38 8 0 -57 -123 -85 -160 -25 -33
-41 -51 -134 -148 -34 -35 -36 -41 -20 -46 51 -15 196 -29 308 -28 142 2 303
17 318 31 4 4 -27 43 -69 87 -41 43 -94 106 -115 139 -111 169 -109 381 5 499
124 127 291 163 433 95 23 -11 87 -65 142 -119 l101 -98 -74 -75 -74 -75 -73
75 c-41 41 -86 83 -101 94 -56 41 -162 14 -208 -52 -32 -44 -29 -115 8 -193
50 -106 305 -345 331 -309 3 5 38 19 76 32 154 53 291 128 371 203 113 107
136 245 62 367 -12 20 -127 140 -256 268 l-233 232 -67 -49 c-98 -70 -244
-142 -317 -156 -5 -1 -30 -7 -55 -14 -65 -19 -305 -21 -382 -3 -96 21 -156 41
-233 77 -77 37 -185 103 -185 114 0 4 -11 12 -25 18 -23 11 -35 1 -261 -225z"/>
</g>
</svg>
